<?xml version="1.0" encoding="UTF-8" standalone="no"?>
<!-- Created with Inkscape (http://www.inkscape.org/) -->

<svg
   xmlns:dc="http://purl.org/dc/elements/1.1/"
   xmlns:cc="http://creativecommons.org/ns#"
   xmlns:rdf="http://www.w3.org/1999/02/22-rdf-syntax-ns#"
   xmlns:svg="http://www.w3.org/2000/svg"
   xmlns="http://www.w3.org/2000/svg"
   xmlns:sodipodi="http://sodipodi.sourceforge.net/DTD/sodipodi-0.dtd"
   xmlns:inkscape="http://www.inkscape.org/namespaces/inkscape"
   width="26mm"
   height="18.0625mm"
   viewBox="0 0 26 18.062499"
   version="1.1"
   id="svg8"
   inkscape:version="0.92.4 (5da689c313, 2019-01-14)"
   sodipodi:docname="icon.svg"
   inkscape:export-filename="C:\Users\Christian\Documents\Dev\NSIS\Open-PDF-Toolkit\icon.png"
   inkscape:export-xdpi="1465.29"
   inkscape:export-ydpi="1465.29">
  <defs
     id="defs2" />
  <sodipodi:namedview
     id="base"
     pagecolor="#ffffff"
     bordercolor="#666666"
     borderopacity="1.0"
     inkscape:pageopacity="0.0"
     inkscape:pageshadow="2"
     inkscape:zoom="3.959798"
     inkscape:cx="57.053759"
     inkscape:cy="28.597764"
     inkscape:document-units="mm"
     inkscape:current-layer="layer2"
     showgrid="false"
     inkscape:window-width="1920"
     inkscape:window-height="1017"
     inkscape:window-x="-8"
     inkscape:window-y="-8"
     inkscape:window-maximized="1" />
  <metadata
     id="metadata5">
    <rdf:RDF>
      <cc:Work
         rdf:about="">
        <dc:format>image/svg+xml</dc:format>
        <dc:type
           rdf:resource="http://purl.org/dc/dcmitype/StillImage" />
        <dc:title />
      </cc:Work>
    </rdf:RDF>
  </metadata>
  <g
     inkscape:groupmode="layer"
     id="layer2"
     inkscape:label="Layer 2"
     transform="translate(-29.315547,-58.520833)">
    <rect
       style="fill:#ffffff;fill-opacity:1;stroke:none;stroke-width:1.20000005;stroke-linecap:round;stroke-linejoin:round;stroke-miterlimit:4;stroke-dasharray:none;stroke-dashoffset:427.46456909;stroke-opacity:1;paint-order:markers fill stroke"
       id="rect836"
       width="26"
       height="18.059999"
       x="29.315548"
       y="58.522331" />
  </g>
  <g
     inkscape:label="Layer 1"
     inkscape:groupmode="layer"
     id="layer1"
     transform="translate(-29.315547,-58.520833)">
    <path
       style="fill:#8e8e8e;fill-opacity:1;stroke:none;stroke-width:0.34894434px;stroke-linecap:butt;stroke-linejoin:miter;stroke-opacity:1"
       d="m 55.315547,58.520833 v 18.0625 h -26 z"
       id="path4530"
       inkscape:connector-curvature="0"
       sodipodi:nodetypes="cccc" />
    <g
       aria-label="PDF"
       style="font-style:normal;font-weight:normal;font-size:10.58333302px;line-height:1.25;font-family:sans-serif;letter-spacing:0px;word-spacing:0px;fill:#000000;fill-opacity:1;stroke:none;stroke-width:0.26458332"
       id="text4520">
      <path
         d="m 29.697706,64.766856 h 3.302123 q 1.472779,0 2.258261,0.656291 0.790649,0.651123 0.790649,1.860351 0,1.214396 -0.790649,1.870687 -0.785482,0.651123 -2.258261,0.651123 h -1.312581 v 2.676839 h -1.989542 z m 1.989542,1.441773 v 2.154907 h 1.100708 q 0.578776,0 0.894002,-0.279053 0.315227,-0.28422 0.315227,-0.800985 0,-0.516764 -0.315227,-0.795817 -0.315226,-0.279052 -0.894002,-0.279052 z"
         style="font-style:normal;font-variant:normal;font-weight:bold;font-stretch:normal;font-family:sans-serif;-inkscape-font-specification:'sans-serif Bold';stroke-width:0.26458332"
         id="path4544" />
      <path
         d="m 39.438713,66.27064 v 4.707723 h 0.713135 q 1.219563,0 1.860351,-0.604614 0.645956,-0.604614 0.645956,-1.756999 0,-1.147217 -0.640788,-1.746663 Q 41.376579,66.27064 40.151848,66.27064 Z M 37.44917,64.766856 h 2.098063 q 1.756999,0 2.614828,0.253215 0.862996,0.248046 1.477946,0.847493 0.542602,0.521932 0.806152,1.204061 0.26355,0.682129 0.26355,1.545125 0,0.873332 -0.26355,1.560628 -0.26355,0.682129 -0.806152,1.204061 -0.620117,0.599447 -1.488281,0.852661 -0.868164,0.248047 -2.604493,0.248047 H 37.44917 Z"
         style="font-style:normal;font-variant:normal;font-weight:bold;font-stretch:normal;font-family:sans-serif;-inkscape-font-specification:'sans-serif Bold';stroke-width:0.26458332"
         id="path4546" />
      <path
         d="m 46.234163,64.766856 h 5.369181 v 1.503784 h -3.379639 v 1.436605 h 3.178101 v 1.503784 h -3.178101 v 3.271118 h -1.989542 z"
         style="font-style:normal;font-variant:normal;font-weight:bold;font-stretch:normal;font-family:sans-serif;-inkscape-font-specification:'sans-serif Bold';stroke-width:0.26458332"
         id="path4548" />
    </g>
    <g
       aria-label="Toolkit"
       style="font-style:normal;font-weight:normal;font-size:10.58333302px;line-height:1.25;font-family:sans-serif;letter-spacing:0px;word-spacing:0px;fill:#000000;fill-opacity:1;stroke:none;stroke-width:0.26458332"
       id="text4524">
      <path
         d="m 29.315547,72.918609 h 3.081293 v 0.65164 h -1.108459 v 2.691653 h -0.862135 v -2.691653 h -1.110699 z"
         style="font-style:normal;font-variant:normal;font-weight:bold;font-stretch:normal;font-size:4.58611107px;line-height:1.25;font-family:sans-serif;-inkscape-font-specification:'sans-serif Bold';letter-spacing:1.40229154px;stroke-width:0.26458332"
         id="path4551" />
      <path
         d="m 34.791147,74.266675 q -0.266478,0 -0.407555,0.192581 -0.138837,0.190341 -0.138837,0.55087 0,0.36053 0.138837,0.55311 0.141077,0.190342 0.407555,0.190342 0.262,0 0.400837,-0.190342 0.138837,-0.19258 0.138837,-0.55311 0,-0.360529 -0.138837,-0.55087 -0.138837,-0.192581 -0.400837,-0.192581 z m 0,-0.573264 q 0.647161,0 1.00993,0.349333 0.365008,0.349332 0.365008,0.967382 0,0.618051 -0.365008,0.967383 -0.362769,0.349333 -1.00993,0.349333 -0.6494,0 -1.016648,-0.349333 -0.365007,-0.349332 -0.365007,-0.967383 0,-0.61805 0.365007,-0.967382 0.367248,-0.349333 1.016648,-0.349333 z"
         style="font-style:normal;font-variant:normal;font-weight:bold;font-stretch:normal;font-size:4.58611107px;line-height:1.25;font-family:sans-serif;-inkscape-font-specification:'sans-serif Bold';letter-spacing:1.40229154px;stroke-width:0.26458332"
         id="path4553" />
      <path
         d="m 39.34639,74.266675 q -0.266478,0 -0.407554,0.192581 -0.138838,0.190341 -0.138838,0.55087 0,0.36053 0.138838,0.55311 0.141076,0.190342 0.407554,0.190342 0.262,0 0.400837,-0.190342 0.138838,-0.19258 0.138838,-0.55311 0,-0.360529 -0.138838,-0.55087 -0.138837,-0.192581 -0.400837,-0.192581 z m 0,-0.573264 q 0.647162,0 1.00993,0.349333 0.365008,0.349332 0.365008,0.967382 0,0.618051 -0.365008,0.967383 -0.362768,0.349333 -1.00993,0.349333 -0.6494,0 -1.016647,-0.349333 -0.365008,-0.349332 -0.365008,-0.967383 0,-0.61805 0.365008,-0.967382 0.367247,-0.349333 1.016647,-0.349333 z"
         style="font-style:normal;font-variant:normal;font-weight:bold;font-stretch:normal;font-size:4.58611107px;line-height:1.25;font-family:sans-serif;-inkscape-font-specification:'sans-serif Bold';letter-spacing:1.40229154px;stroke-width:0.26458332"
         id="path4555" />
      <path
         d="m 42.70808,72.777532 h 0.801673 v 3.48437 H 42.70808 Z"
         style="font-style:normal;font-variant:normal;font-weight:bold;font-stretch:normal;font-size:4.58611107px;line-height:1.25;font-family:sans-serif;-inkscape-font-specification:'sans-serif Bold';letter-spacing:1.40229154px;stroke-width:0.26458332"
         id="path4557" />
      <path
         d="m 45.686847,72.777532 h 0.801674 v 1.896698 l 0.922596,-0.920358 h 0.931554 l -1.224904,1.151007 1.321195,1.357023 H 47.4671 l -0.978579,-1.045759 v 1.045759 h -0.801674 z"
         style="font-style:normal;font-variant:normal;font-weight:bold;font-stretch:normal;font-size:4.58611107px;line-height:1.25;font-family:sans-serif;-inkscape-font-specification:'sans-serif Bold';letter-spacing:1.40229154px;stroke-width:0.26458332"
         id="path4559" />
      <path
         d="m 50.14356,73.753872 h 0.801673 v 2.50803 H 50.14356 Z m 0,-0.97634 h 0.801673 v 0.653879 H 50.14356 Z"
         style="font-style:normal;font-variant:normal;font-weight:bold;font-stretch:normal;font-size:4.58611107px;line-height:1.25;font-family:sans-serif;-inkscape-font-specification:'sans-serif Bold';letter-spacing:1.40229154px;stroke-width:0.26458332"
         id="path4561" />
      <path
         d="m 53.997898,73.041771 v 0.712101 h 0.826306 v 0.573264 h -0.826306 v 1.063673 q 0,0.174667 0.06942,0.237368 0.06942,0.06046 0.275435,0.06046 h 0.412034 v 0.573264 h -0.687469 q -0.474734,0 -0.674033,-0.19706 -0.19706,-0.199298 -0.19706,-0.674033 v -1.063673 h -0.398597 v -0.573264 h 0.398597 v -0.712101 z"
         style="font-style:normal;font-variant:normal;font-weight:bold;font-stretch:normal;font-size:4.58611107px;line-height:1.25;font-family:sans-serif;-inkscape-font-specification:'sans-serif Bold';letter-spacing:1.40229154px;stroke-width:0.26458332"
         id="path4563" />
    </g>
    <g
       aria-label="Open"
       style="font-style:normal;font-variant:normal;font-weight:bold;font-stretch:normal;font-size:6.3499999px;line-height:1.25;font-family:sans-serif;-inkscape-font-specification:'sans-serif Bold';letter-spacing:0px;word-spacing:0px;fill:#000000;fill-opacity:1;stroke:none;stroke-width:0.26458332"
       id="text4528">
      <path
         d="m 31.990663,59.657384 q -0.545703,0 -0.846459,0.403076 -0.300757,0.403076 -0.300757,1.134814 0,0.728638 0.300757,1.131714 0.300756,0.403076 0.846459,0.403076 0.548804,0 0.849561,-0.403076 0.300757,-0.403076 0.300757,-1.131714 0,-0.731738 -0.300757,-1.134814 -0.300757,-0.403076 -0.849561,-0.403076 z m 0,-0.865064 q 1.116211,0 1.748731,0.638721 0.632519,0.638721 0.632519,1.764233 0,1.122412 -0.632519,1.761133 -0.63252,0.638721 -1.748731,0.638721 -1.11311,0 -1.74873,-0.638721 -0.632519,-0.638721 -0.632519,-1.761133 0,-1.125512 0.632519,-1.764233 0.63562,-0.638721 1.74873,-0.638721 z"
         style="font-style:normal;font-variant:normal;font-weight:bold;font-stretch:normal;font-size:6.3499999px;font-family:sans-serif;-inkscape-font-specification:'sans-serif Bold';stroke-width:0.26458332"
         id="path4535" />
      <path
         d="m 36.331484,63.002916 v 1.823144 h -1.11001 v -4.793505 h 1.11001 v 0.508496 q 0.229443,-0.303858 0.508496,-0.446485 0.279053,-0.145727 0.641821,-0.145727 0.641821,0 1.054199,0.511597 0.412378,0.508496 0.412378,1.311547 0,0.803052 -0.412378,1.314649 -0.412378,0.508496 -1.054199,0.508496 -0.362768,0 -0.641821,-0.142627 -0.279053,-0.145728 -0.508496,-0.449585 z m 0.737939,-2.247925 q -0.356567,0 -0.548803,0.26355 -0.189136,0.260449 -0.189136,0.753442 0,0.492994 0.189136,0.756543 0.192236,0.26045 0.548803,0.26045 0.356568,0 0.542603,-0.26045 0.189136,-0.260449 0.189136,-0.756543 0,-0.496093 -0.189136,-0.756543 -0.186035,-0.260449 -0.542603,-0.260449 z"
         style="font-style:normal;font-variant:normal;font-weight:bold;font-stretch:normal;font-size:6.3499999px;font-family:sans-serif;-inkscape-font-specification:'sans-serif Bold';stroke-width:0.26458332"
         id="path4537" />
      <path
         d="m 43.23959,61.759581 v 0.31626 h -2.595191 q 0.04031,0.390674 0.282154,0.586011 0.241845,0.195336 0.675927,0.195336 0.350366,0 0.716236,-0.102319 0.368969,-0.10542 0.756543,-0.31626 v 0.855762 q -0.393775,0.148828 -0.787549,0.223242 -0.393775,0.07752 -0.787549,0.07752 -0.942578,0 -1.466577,-0.47749 -0.520899,-0.480591 -0.520899,-1.345655 0,-0.84956 0.511597,-1.336352 0.514697,-0.486792 1.413867,-0.486792 0.818555,0 1.308447,0.492993 0.492994,0.492993 0.492994,1.317749 z m -1.141016,-0.36897 q 0,-0.316259 -0.186035,-0.508496 -0.182935,-0.195337 -0.480591,-0.195337 -0.322461,0 -0.523999,0.182935 -0.201538,0.179834 -0.251147,0.520898 z"
         style="font-style:normal;font-variant:normal;font-weight:bold;font-stretch:normal;font-size:6.3499999px;font-family:sans-serif;-inkscape-font-specification:'sans-serif Bold';stroke-width:0.26458332"
         id="path4539" />
      <path
         d="m 47.568007,61.390611 v 2.1146 h -1.116211 v -0.344165 -1.274341 q 0,-0.449585 -0.0217,-0.620117 -0.0186,-0.170532 -0.06821,-0.251148 -0.06511,-0.10852 -0.176733,-0.167431 -0.111621,-0.06201 -0.254248,-0.06201 -0.347266,0 -0.545703,0.269751 -0.198438,0.26665 -0.198438,0.74104 v 1.708423 h -1.11001 v -3.472656 h 1.11001 v 0.508496 q 0.251148,-0.303858 0.533301,-0.446485 0.282153,-0.145727 0.623218,-0.145727 0.601513,0 0.911572,0.36897 0.313159,0.368969 0.313159,1.072802 z"
         style="font-style:normal;font-variant:normal;font-weight:bold;font-stretch:normal;font-size:6.3499999px;font-family:sans-serif;-inkscape-font-specification:'sans-serif Bold';stroke-width:0.26458332"
         id="path4541" />
    </g>
  </g>
</svg>
