<?xml version="1.0" encoding="UTF-8" standalone="no"?>
<!-- Created with Inkscape (http://www.inkscape.org/) -->

<svg
   xmlns:dc="http://purl.org/dc/elements/1.1/"
   xmlns:cc="http://creativecommons.org/ns#"
   xmlns:rdf="http://www.w3.org/1999/02/22-rdf-syntax-ns#"
   xmlns:svg="http://www.w3.org/2000/svg"
   xmlns="http://www.w3.org/2000/svg"
   xmlns:sodipodi="http://sodipodi.sourceforge.net/DTD/sodipodi-0.dtd"
   xmlns:inkscape="http://www.inkscape.org/namespaces/inkscape"
   width="31mm"
   height="31.56488mm"
   viewBox="0 0 31 31.56488"
   version="1.1"
   id="svg8"
   inkscape:version="0.92.4 (5da689c313, 2019-01-14)"
   sodipodi:docname="icon.svg"
   inkscape:export-filename="C:\Users\Christian\Documents\Dev\Godot\OPT\icon.png"
   inkscape:export-xdpi="1465"
   inkscape:export-ydpi="1465">
  <defs
     id="defs2">
    <marker
       inkscape:stockid="Arrow1Lstart"
       orient="auto"
       refY="0"
       refX="0"
       id="Arrow1Lstart"
       style="overflow:visible"
       inkscape:isstock="true">
      <path
         id="path908"
         d="M 0,0 5,-5 -12.5,0 5,5 Z"
         style="fill:#000000;fill-opacity:1;fill-rule:evenodd;stroke:#000000;stroke-width:1.00000003pt;stroke-opacity:1"
         transform="matrix(0.8,0,0,0.8,10,0)"
         inkscape:connector-curvature="0" />
    </marker>
  </defs>
  <sodipodi:namedview
     id="base"
     pagecolor="#ffffff"
     bordercolor="#666666"
     borderopacity="1.0"
     inkscape:pageopacity="0.0"
     inkscape:pageshadow="2"
     inkscape:zoom="3.959798"
     inkscape:cx="66.102568"
     inkscape:cy="66.153329"
     inkscape:document-units="mm"
     inkscape:current-layer="layer1"
     showgrid="false"
     inkscape:window-width="2560"
     inkscape:window-height="1377"
     inkscape:window-x="1912"
     inkscape:window-y="-8"
     inkscape:window-maximized="1" />
  <metadata
     id="metadata5">
    <rdf:RDF>
      <cc:Work
         rdf:about="">
        <dc:format>image/svg+xml</dc:format>
        <dc:type
           rdf:resource="http://purl.org/dc/dcmitype/StillImage" />
        <dc:title />
      </cc:Work>
    </rdf:RDF>
  </metadata>
  <g
     inkscape:label="Layer 1"
     inkscape:groupmode="layer"
     id="layer1"
     transform="translate(-89.5,-132.71752)">
    <path
       style="fill:#ffffff;fill-opacity:1;stroke:#000000;stroke-width:6.01322842;stroke-linecap:round;stroke-linejoin:round;stroke-miterlimit:25.60000038;stroke-dasharray:none;stroke-dashoffset:0;stroke-opacity:1"
       d="M 24.021484,3.0058594 V 42.701172 H 97.251953 V 33.974609 L 65.214844,3.0058594 Z m 0,89.7539066 V 116.29297 H 97.251953 V 92.759766 Z"
       transform="matrix(0.26458333,0,0,0.26458333,88.956409,132.71772)"
       id="path875"
       inkscape:connector-curvature="0" />
    <rect
       style="fill:#000000;fill-opacity:1;stroke:none;stroke-width:0.64947796;stroke-linecap:round;stroke-linejoin:round;stroke-miterlimit:25.60000038;stroke-dasharray:none;stroke-dashoffset:427.46456909;stroke-opacity:1;paint-order:normal"
       id="rect879"
       width="31"
       height="9.8885498"
       x="89.5"
       y="145.55542"
       rx="0.98621887"
       ry="1" />
    <g
       aria-label="OPT"
       style="font-style:normal;font-weight:normal;font-size:10.58333302px;line-height:1.25;font-family:sans-serif;letter-spacing:0px;word-spacing:0px;fill:#ffffff;fill-opacity:1;stroke:none;stroke-width:0.26458332"
       id="text891">
      <path
         d="m 97.279541,147.9391 q -0.909505,0 -1.410767,0.67179 -0.501261,0.67179 -0.501261,1.89136 0,1.21439 0.501261,1.88619 0.501262,0.67179 1.410767,0.67179 0.914673,0 1.415934,-0.67179 0.501261,-0.6718 0.501261,-1.88619 0,-1.21957 -0.501261,-1.89136 -0.501261,-0.67179 -1.415934,-0.67179 z m 0,-1.44178 q 1.860351,0 2.914549,1.06454 1.0542,1.06453 1.0542,2.94039 0,1.87069 -1.0542,2.93522 -1.054198,1.06453 -2.914549,1.06453 -1.855184,0 -2.914551,-1.06453 -1.054199,-1.06453 -1.054199,-2.93522 0,-1.87586 1.054199,-2.94039 1.059367,-1.06454 2.914551,-1.06454 z"
         style="font-style:normal;font-variant:normal;font-weight:bold;font-stretch:normal;font-family:sans-serif;-inkscape-font-specification:'sans-serif Bold';fill:#ffffff;stroke-width:0.26458332"
         id="path895"
         inkscape:connector-curvature="0" />
      <path
         d="m 102.74691,146.63685 h 3.30212 q 1.47278,0 2.25826,0.65629 0.79065,0.65112 0.79065,1.86035 0,1.2144 -0.79065,1.87069 -0.78548,0.65112 -2.25826,0.65112 h -1.31258 v 2.67684 h -1.98954 z m 1.98954,1.44177 v 2.15491 h 1.10071 q 0.57877,0 0.894,-0.27905 0.31523,-0.28422 0.31523,-0.80099 0,-0.51676 -0.31523,-0.79581 -0.31523,-0.27906 -0.894,-0.27906 z"
         style="font-style:normal;font-variant:normal;font-weight:bold;font-stretch:normal;font-family:sans-serif;-inkscape-font-specification:'sans-serif Bold';fill:#ffffff;stroke-width:0.26458332"
         id="path897"
         inkscape:connector-curvature="0" />
      <path
         d="m 109.57853,146.63685 h 7.11068 v 1.50379 h -2.55798 v 6.2115 h -1.98955 v -6.2115 h -2.56315 z"
         style="font-style:normal;font-variant:normal;font-weight:bold;font-stretch:normal;font-family:sans-serif;-inkscape-font-specification:'sans-serif Bold';fill:#ffffff;stroke-width:0.26458332"
         id="path899"
         inkscape:connector-curvature="0" />
    </g>
  </g>
</svg>
